# xmcd
#
# Track frame offsets:
#	150
#	17941
#	37786
#	54138
#	71123
#	85875
#	100527
#	119766
#	136767
#	155904
#	168486
#	187983
#
# Disc length: 2679 seconds
#
# Revision: 1
# Processed by: cddbd v1.5.2PL0 Copyright (c) Steve Scherf et al.
# Submitted via: EasyCDDAExtractor 8.2.3.1
#
DISCID=990a750c
DTITLE=Beaver Nelson - The Last Hurrah
DYEAR=1998
DGENRE=Country
TTITLE0=Company Of Kings
TTITLE1=Strong As I Look
TTITLE2=Too Much Moonlight
TTITLE3=Forget Thinkin'
TTITLE4=I'm Just Cryin'
TTITLE5=Stray Dog
TTITLE6=Things Get Shaky 'Round Midnight
TTITLE7=All Over
TTITLE8=One Car Collision
TTITLE9=Landed In The Mud
TTITLE10=Pyramids
TTITLE11=Drive You Home
EXTD=Texas Rock "Austin"
EXTT0=
EXTT1=
EXTT2=
EXTT3=
EXTT4=
EXTT5=
EXTT6=
EXTT7=
EXTT8=
EXTT9=
EXTT10=
EXTT11=
PLAYORDER=
